ModelForces
version=1
nRows=4
nColumns=155
inDegrees=no

This file contains the forces exerted on a model during a simulation.

A force is a generalized force, meaning that it can be either a force (N) or a torque (Nm).

Units are S.I. units (second, meters, Newtons, ...)
Angles are in degrees.

endheader
time	glut_med1_r	glut_med2_r	glut_med3_r	glut_min1_r	glut_min2_r	glut_min3_r	semimem_r	semiten_r	bifemlh_r	bifemsh_r	sar_r	add_long_r	add_brev_r	add_mag1_r	add_mag2_r	add_mag3_r	tfl_r	pect_r	grac_r	glut_max1_r	glut_max2_r	glut_max3_r	iliacus_r	psoas_r	quad_fem_r	gem_r	peri_r	rect_fem_r	vas_med_r	vas_int_r	vas_lat_r	med_gas_r	lat_gas_r	soleus_r	tib_post_r	flex_dig_r	flex_hal_r	tib_ant_r	per_brev_r	per_long_r	per_tert_r	ext_dig_r	ext_hal_r	glut_med1_l	glut_med2_l	glut_med3_l	glut_min1_l	glut_min2_l	glut_min3_l	semimem_l	semiten_l	bifemlh_l	bifemsh_l	sar_l	add_long_l	add_brev_l	add_mag1_l	add_mag2_l	add_mag3_l	tfl_l	pect_l	grac_l	glut_max1_l	glut_max2_l	glut_max3_l	iliacus_l	psoas_l	quad_fem_l	gem_l	peri_l	rect_fem_l	vas_med_l	vas_int_l	vas_lat_l	med_gas_l	lat_gas_l	soleus_l	tib_post_l	flex_dig_l	flex_hal_l	tib_ant_l	per_brev_l	per_long_l	per_tert_l	ext_dig_l	ext_hal_l	ercspn_r	ercspn_l	intobl_r	intobl_l	extobl_r	extobl_l	femur_lat_meniscii_r.femur_lat_r.force.X	femur_lat_meniscii_r.femur_lat_r.force.Y	femur_lat_meniscii_r.femur_lat_r.force.Z	femur_lat_meniscii_r.femur_lat_r.torque.X	femur_lat_meniscii_r.femur_lat_r.torque.Y	femur_lat_meniscii_r.femur_lat_r.torque.Z	femur_lat_meniscii_r.meniscus_lat_r.force.X	femur_lat_meniscii_r.meniscus_lat_r.force.Y	femur_lat_meniscii_r.meniscus_lat_r.force.Z	femur_lat_meniscii_r.meniscus_lat_r.torque.X	femur_lat_meniscii_r.meniscus_lat_r.torque.Y	femur_lat_meniscii_r.meniscus_lat_r.torque.Z	femur_med_meniscii_r.femur_med_r.force.X	femur_med_meniscii_r.femur_med_r.force.Y	femur_med_meniscii_r.femur_med_r.force.Z	femur_med_meniscii_r.femur_med_r.torque.X	femur_med_meniscii_r.femur_med_r.torque.Y	femur_med_meniscii_r.femur_med_r.torque.Z	femur_med_meniscii_r.meniscus_med_r.force.X	femur_med_meniscii_r.meniscus_med_r.force.Y	femur_med_meniscii_r.meniscus_med_r.force.Z	femur_med_meniscii_r.meniscus_med_r.torque.X	femur_med_meniscii_r.meniscus_med_r.torque.Y	femur_med_meniscii_r.meniscus_med_r.torque.Z	femur_med_tibia_r.tibia_upper_r.force.X	femur_med_tibia_r.tibia_upper_r.force.Y	femur_med_tibia_r.tibia_upper_r.force.Z	femur_med_tibia_r.tibia_upper_r.torque.X	femur_med_tibia_r.tibia_upper_r.torque.Y	femur_med_tibia_r.tibia_upper_r.torque.Z	femur_med_tibia_r.femur_med_r.force.X	femur_med_tibia_r.femur_med_r.force.Y	femur_med_tibia_r.femur_med_r.force.Z	femur_med_tibia_r.femur_med_r.torque.X	femur_med_tibia_r.femur_med_r.torque.Y	femur_med_tibia_r.femur_med_r.torque.Z	femur_lat_tibia_r.tibia_upper_r.force.X	femur_lat_tibia_r.tibia_upper_r.force.Y	femur_lat_tibia_r.tibia_upper_r.force.Z	femur_lat_tibia_r.tibia_upper_r.torque.X	femur_lat_tibia_r.tibia_upper_r.torque.Y	femur_lat_tibia_r.tibia_upper_r.torque.Z	femur_lat_tibia_r.femur_lat_r.force.X	femur_lat_tibia_r.femur_lat_r.force.Y	femur_lat_tibia_r.femur_lat_r.force.Z	femur_lat_tibia_r.femur_lat_r.torque.X	femur_lat_tibia_r.femur_lat_r.torque.Y	femur_lat_tibia_r.femur_lat_r.torque.Z	aACL_R	pACL_R	aPCL_R	pPCL_R	aMCL_R	mMCL_R	pMCL_R	aLCL_R	mLCL_R	pLCL_R	aPCL_L	pPCL_L	aMCL_L	aLCL_L
      0.07259121	      0.00000000	     14.22438895	     14.51184338	      6.71155725	      7.62862977	      5.95454935	      0.00000000	    236.71813187	    278.39419152	    418.55490934	    137.88941026	     14.86556967	     10.36528248	      0.00000000	      0.00000000	     10.84483683	      8.76424389	      0.00000000	    121.69375996	      8.74742063	     14.48302953	     11.05421805	     39.70917226	     32.37187204	      0.00000000	      5.58494876	      0.00000000	     46.17222008	      0.00000000	      0.00000000	      0.00000000	     48.55456382	     42.76336012	      0.00000000	     29.59910908	      9.22904110	      7.28828394	      4.78179895	      5.19218911	     19.90262114	      2.59078325	     15.82346239	      4.88244360	      0.00000000	     14.22438895	     14.51184338	      6.71155725	      7.62862977	      5.95454935	      0.00000000	     11.32135170	      6.61613037	     18.59198274	      3.81994424	     14.86556967	     10.36528248	      0.00000000	      0.00000000	     10.84483683	      8.19023633	      0.00000000	      3.97970320	      8.74742063	     14.48302953	     11.05421805	     39.70917226	     32.37187204	      0.00000000	      5.58494876	      0.00000000	     27.84137454	      0.00000000	      0.00000000	      0.00000000	      0.00000000	      0.00000000	     33.08481475	     59.84890339	     10.84316116	      9.32875371	      7.33938535	     10.12262524	     22.07894415	      4.91094592	      6.54870052	      1.94478114	     63.24686433	     63.24686433	     24.38995954	     24.38995954	     40.92305460	     40.92305460	    150.26567237	    500.10430705	    -40.10523865	      3.85545074	      3.66487243	     60.01751066	   -150.26567237	   -500.10430705	     40.10523865	     13.87323851	     -4.25801317	     -0.98828525	     45.47270534	    705.77378285	     68.75248885	    -10.46990616	     -1.08600552	     17.94353335	    -45.47270534	   -705.77378285	    -68.75248885	    -12.53255883	      0.66999203	      1.54079001	      0.00000000	      0.00000000	      0.00000000	      0.00000000	      0.00000000	      0.00000000	      0.00000000	      0.00000000	      0.00000000	      0.00000000	      0.00000000	      0.00000000	      0.00000000	      0.00000000	      0.00000000	      0.00000000	      0.00000000	      0.00000000	      0.00000000	      0.00000000	      0.00000000	      0.00000000	      0.00000000	      0.00000000	      1.54476583	     -2.18344042	      0.00000000	     27.99676300	      0.00000000	    -15.48420462	    -34.35175983	     -5.37201825	      0.00000000	      0.00000000	      0.00000000	      0.00000000	      0.00000001	      0.00000000
      0.07404974	      0.00000000	     14.16466418	     14.60315662	      6.63232999	      7.54125255	      6.26323590	      0.00000000	    235.48668845	    274.04493553	    415.57681053	    137.86903947	     14.68271176	     10.24393648	      0.00000000	      0.00000000	     10.75477704	      8.70665945	      0.00000000	    121.46752235	      8.79877067	     14.33411604	     10.92226573	     39.36659245	     31.98282728	      0.00000000	      5.53897407	      0.00000000	     46.07492207	      0.00000000	      0.00000000	      0.00000000	     44.16267197	     38.27011796	      0.00000000	     27.48281987	      9.90900404	      7.76343044	     16.92666812	      4.36293336	     17.45933678	      6.57582108	     17.56318206	      5.44992225	      0.00000000	     14.16466418	     14.60315662	      6.63232999	      7.54125255	      6.26323590	      0.00000000	     11.17806900	      7.81803472	     18.36817487	      3.77503697	     14.68271176	     10.24393648	      0.00000000	      0.00000000	     10.75477704	      8.13931280	      0.00000000	      3.93221337	      8.79877067	     14.33411604	     10.92226573	     39.36659245	     31.98282728	      0.00000000	      5.53897407	      0.00000000	     27.74932510	      0.00000000	      0.00000000	      0.00000000	      0.00000000	      0.00000000	     35.84037639	     59.84335934	     10.95003475	      9.52844339	      8.95205103	     10.15739604	     22.15172548	      4.86254485	      6.67827324	      1.99635257	     62.49883454	     62.49883454	     24.08838103	     24.08838103	     40.63775929	     40.63775929	    144.46532432	    487.19461885	    -39.18585958	      3.78477497	      3.52171602	     57.59993817	   -144.46532432	   -487.19461885	     39.18585958	     13.52461135	     -4.08321585	     -0.76702867	     46.91870565	    674.90069279	     66.99908613	    -10.50616831	     -1.13314576	     18.50672380	    -46.91870565	   -674.90069279	    -66.99908613	    -11.97176869	      0.70587410	      1.53835036	      0.00000000	      0.00000000	      0.00000000	      0.00000000	      0.00000000	      0.00000000	      0.00000000	      0.00000000	      0.00000000	      0.00000000	      0.00000000	      0.00000000	      0.00000000	      0.00000000	      0.00000000	      0.00000000	      0.00000000	      0.00000000	      0.00000000	      0.00000000	      0.00000000	      0.00000000	      0.00000000	      0.00000000	      0.35703021	     -3.85438434	      0.00000000	     29.39394850	      0.00000000	    -16.21775401	    -36.15427890	     -7.21428218	      0.00000000	      0.00000000	      0.00000000	      0.00000000	      0.00000001	      0.00000000
      0.07550827	      0.00000000	     14.08636978	     14.62518796	      6.55471308	      7.45556705	      6.50453693	      0.00000000	    234.09811678	    269.45639913	    411.56908103	    137.74005508	     14.50361362	     10.12505170	      0.00000000	      0.00000000	     10.66213733	      8.63651559	      0.00000000	    121.11666152	      8.80764674	     14.18325996	     10.79222539	     39.03122519	     31.60197348	      0.00000000	      5.49287012	      0.00000000	     44.64898460	      0.00000000	      0.00000000	      0.00000000	     39.57255574	     33.88954121	      0.00000000	     25.29493909	     10.47908398	      8.15079594	     33.04130634	      3.75361514	     15.34340972	      5.10654238	     19.17448852	      5.96552097	      0.00000000	     14.08636978	     14.62518796	      6.55471308	      7.45556705	      6.50453693	      0.00000000	     11.03775159	      8.84798204	     18.14894989	      3.73104197	     14.50361362	     10.12505170	      0.00000000	      0.00000000	     10.66213733	      8.08730156	      0.00000000	      3.88569299	      8.80764674	     14.18325996	     10.79222539	     39.03122519	     31.60197348	      0.00000000	      5.49287012	      0.00000000	     27.64509719	      0.00000000	      0.00000000	      0.00000000	      0.00000000	      0.00000000	     38.32812911	     59.83071664	     11.01575632	      9.69043579	     10.29701330	     10.18124455	     22.21263793	      4.81388180	      6.82331268	      2.05376302	     61.76603312	     61.76603312	     23.79256661	     23.79256661	     40.35853735	     40.35853735	    141.44836979	    494.21468779	    -41.44446756	      4.52600556	      3.43045115	     56.22021946	   -141.44836979	   -494.21468779	     41.44446756	     13.67490375	     -3.96327559	     -0.45501315	     53.08050612	    654.66072969	     70.60576165	    -12.50818170	     -1.28217422	     20.98834259	    -53.08050612	   -654.66072969	    -70.60576165	    -11.44814444	      0.80449271	      1.45080694	      0.00000000	      0.00000000	      0.00000000	      0.00000000	      0.00000000	      0.00000000	      0.00000000	      0.00000000	      0.00000000	      0.00000000	      0.00000000	      0.00000000	      0.00000000	      0.00000000	      0.00000000	      0.00000000	      0.00000000	      0.00000000	      0.00000000	      0.00000000	      0.00000000	      0.00000000	      0.00000000	      0.00000000	     -0.94328378	     -5.54967332	      0.00000000	     33.04558961	      0.00000000	    -16.20254862	    -37.24904571	     -7.68123117	      0.00000000	      0.00000000	      0.00000000	      0.00000000	      0.00000001	      0.00000000
      0.07639730	      0.00000000	     14.03108495	     14.61853541	      6.50817801	      7.40416440	      6.62399467	      0.00000000	    233.27375462	    266.67274233	    409.45544256	    137.69921166	     14.39625556	     10.05377135	      0.00000000	      0.00000000	     10.60458695	      8.59703780	      0.00000000	    120.93577548	      8.80195321	     14.09074848	     10.71393717	     38.83027432	     31.37376398	      0.00000000	      5.46475937	      0.00000000	     45.18399788	      0.00000000	      0.00000000	      0.00000000	     36.87642906	     31.39463583	      0.00000000	     23.92815626	     10.75061775	      8.33217371	     36.47379090	      3.49232989	     14.24384750	      7.84621108	     19.81461892	      6.16807855	      0.00000000	     14.03108495	     14.61853541	      6.50817801	      7.40416440	      6.62399467	      0.00000000	     10.95364822	      9.40546921	     18.01752961	      3.70466442	     14.39625556	     10.05377135	      0.00000000	      0.00000000	     10.60458695	      8.05512220	      0.00000000	      3.85780365	      8.80195321	     14.09074848	     10.71393717	     38.83027432	     31.37376398	      0.00000000	      5.46475937	      0.00000000	     27.57584329	      0.00000000	      0.00000000	      0.00000000	      0.00000000	      0.00000000	     39.72601927	     59.81950405	     11.03591898	      9.77029374	     11.01030934	     10.19081481	     22.24421812	      4.78416222	      6.91892404	      2.09147429	     61.32669233	     61.32669233	     23.61505878	     23.61505878	     40.19126038	     40.19126038	    140.94757168	    489.32642523	    -40.61628220	      4.27845792	      3.42782993	     56.00615224	   -140.94757168	   -489.32642523	     40.61628220	     13.57836065	     -3.95653567	     -0.40860847	     48.76540967	    635.07371110	     68.77916370	    -12.20729806	     -1.19188204	     19.16126359	    -48.76540967	   -635.07371110	    -68.77916370	    -11.14233701	      0.73432320	      1.61883946	      0.00000000	      0.00000000	      0.00000000	      0.00000000	      0.00000000	      0.00000000	      0.00000000	      0.00000000	      0.00000000	      0.00000000	      0.00000000	      0.00000000	      0.00000000	      0.00000000	      0.00000000	      0.00000000	      0.00000000	      0.00000000	      0.00000000	      0.00000000	      0.00000000	      0.00000000	      0.00000000	      0.00000000	     -1.17704076	     -6.06842389	      0.00000000	     35.41561746	      0.00000000	    -15.53168525	    -37.21616244	     -7.62776254	      0.00000000	      0.00000000	      0.00000000	      0.00000000	      0.00000001	      0.00000000
